<svg version="1.0" xmlns="http://www.w3.org/2000/svg" width="933.333" height="933.333" viewBox="0 0 700 700"><path d="M330.8 158.2c-.9.7-3.8 5.6-6.4 10.8-4.1 8.1-6.2 10.9-14.4 19-11.9 11.7-25.4 21.4-46.9 33.7-25.3 14.4-32.7 19.9-48.7 35.8-28.2 28.1-44 60.9-47.9 100-1.1 10.9-.5 33.6 1 39.5.3.8.7 3.1 1 5 .3 1.9 1.1 5.3 1.6 7.5.6 2.2 1.2 4.7 1.4 5.6.2.9 1.7 5.8 3.4 10.9 9.6 28.4 27.4 54.8 53.2 78.5 17.5 16.2 31.6 24.3 51.8 30 10.2 2.8 22.8 5.2 31.4 6.1 3.4.3 7.8.8 9.7 1 4.4.6 31.1.5 36.5-.1 2.2-.2 6.6-.7 9.8-1 3.3-.3 9.6-1.3 14-2.1 4.5-.9 9.1-1.8 10.2-2 5.2-.9 20.8-6.5 27.9-9.9 12.4-6 30.3-20.1 44.7-35.1 27.9-29 41.4-58.7 46.4-101.9.7-5.3.7-29.3.1-33.5-.2-1.4-.7-5-1.1-8-5-39.1-27.7-78.2-60.5-104.7-6.7-5.4-24.2-17.3-25.5-17.3-1.1 0-20.7-11.8-28-16.8-16.1-11.1-25.3-18.9-39-32.6-19.7-19.9-21.8-21.4-25.7-18.4zm19.7 172.1c15.9 5.9 35.4 18.2 44.6 28 14 15.1 20.1 31.1 19.5 51.7-.3 9.7-.8 13-3.4 21-6 18.2-18.2 35.4-29.6 42-5.3 3-15.9 6.2-24.6 7.4-8.6 1.2-28.7.7-37.5-.8-12.6-2.3-27.6-9.9-36.6-18.6-9.9-9.6-17.4-26.1-19.5-43-2.5-19.6.7-32.5 12.2-49 13-18.7 34.5-34.9 52.4-39.4 6.6-1.6 17-1.3 22.5.7z"/></svg>